<mxfile host="app.diagrams.net" modified="2023-05-30T06:47:40.818Z" agent="Mozilla/5.0 (Windows NT 10.0; Win64; x64) AppleWebKit/537.36 (KHTML, like Gecko) Chrome/113.0.0.0 Safari/537.36" etag="BrqRvwghOSOh5ufoNKVz" version="21.3.2" type="github">
  <diagram name="第 1 页" id="fa6UEyfTOUuK6uTc1UZw">
    <mxGraphModel dx="1050" dy="541" grid="1" gridSize="10" guides="1" tooltips="1" connect="1" arrows="1" fold="1" page="1" pageScale="1" pageWidth="827" pageHeight="1169" math="0" shadow="0">
      <root>
        <mxCell id="0" />
        <mxCell id="1" parent="0" />
        <mxCell id="Q1ceHzpypyp-L0ai0lnX-15" style="edgeStyle=orthogonalEdgeStyle;rounded=0;orthogonalLoop=1;jettySize=auto;html=1;exitX=0;exitY=0.5;exitDx=0;exitDy=0;" parent="1" source="Q1ceHzpypyp-L0ai0lnX-3" edge="1">
          <mxGeometry relative="1" as="geometry">
            <mxPoint x="350" y="380" as="targetPoint" />
            <Array as="points">
              <mxPoint x="180" y="560" />
              <mxPoint x="180" y="380" />
              <mxPoint x="350" y="380" />
            </Array>
          </mxGeometry>
        </mxCell>
        <mxCell id="Q1ceHzpypyp-L0ai0lnX-3" value="&lt;font style=&quot;font-size: 18px;&quot;&gt;LmdbDataset&lt;/font&gt;" style="swimlane;whiteSpace=wrap;html=1;startSize=30;" parent="1" vertex="1">
          <mxGeometry x="235" y="500" width="230" height="110" as="geometry" />
        </mxCell>
        <mxCell id="Q1ceHzpypyp-L0ai0lnX-1" value="&lt;p class=&quot;MsoNormal&quot;&gt;&lt;font style=&quot;font-size: 18px;&quot; face=&quot;Times New Roman&quot;&gt;__getitem__(self,index)&lt;/font&gt;&lt;/p&gt;" style="rounded=0;whiteSpace=wrap;html=1;" parent="Q1ceHzpypyp-L0ai0lnX-3" vertex="1">
          <mxGeometry x="15" y="50" width="200" height="40" as="geometry" />
        </mxCell>
        <mxCell id="Q1ceHzpypyp-L0ai0lnX-26" value="" style="edgeStyle=orthogonalEdgeStyle;rounded=0;orthogonalLoop=1;jettySize=auto;html=1;" parent="1" source="Q1ceHzpypyp-L0ai0lnX-4" target="Q1ceHzpypyp-L0ai0lnX-24" edge="1">
          <mxGeometry relative="1" as="geometry">
            <Array as="points">
              <mxPoint x="352" y="760" />
              <mxPoint x="352" y="760" />
            </Array>
          </mxGeometry>
        </mxCell>
        <mxCell id="Q1ceHzpypyp-L0ai0lnX-4" value="&lt;p class=&quot;MsoNormal&quot;&gt;&lt;font style=&quot;font-size: 18px;&quot; face=&quot;Times New Roman&quot;&gt;collate_fn&lt;/font&gt;&lt;/p&gt;" style="swimlane;whiteSpace=wrap;html=1;startSize=30;" parent="1" vertex="1">
          <mxGeometry x="235" y="650" width="230" height="110" as="geometry" />
        </mxCell>
        <mxCell id="Q1ceHzpypyp-L0ai0lnX-5" value="&lt;p class=&quot;MsoNormal&quot;&gt;&lt;font style=&quot;font-size: 18px;&quot; face=&quot;Times New Roman&quot;&gt;__call__(self,batch)&lt;/font&gt;&lt;/p&gt;" style="rounded=0;whiteSpace=wrap;html=1;" parent="Q1ceHzpypyp-L0ai0lnX-4" vertex="1">
          <mxGeometry x="15" y="50" width="200" height="40" as="geometry" />
        </mxCell>
        <mxCell id="Q1ceHzpypyp-L0ai0lnX-21" value="" style="edgeStyle=orthogonalEdgeStyle;rounded=0;orthogonalLoop=1;jettySize=auto;html=1;" parent="1" source="Q1ceHzpypyp-L0ai0lnX-6" target="Q1ceHzpypyp-L0ai0lnX-20" edge="1">
          <mxGeometry relative="1" as="geometry" />
        </mxCell>
        <mxCell id="Q1ceHzpypyp-L0ai0lnX-6" value="&lt;font style=&quot;font-size: 18px;&quot;&gt;start&lt;/font&gt;" style="rounded=1;whiteSpace=wrap;html=1;" parent="1" vertex="1">
          <mxGeometry x="285" y="100" width="130" height="40" as="geometry" />
        </mxCell>
        <mxCell id="Q1ceHzpypyp-L0ai0lnX-10" value="" style="edgeStyle=orthogonalEdgeStyle;rounded=0;orthogonalLoop=1;jettySize=auto;html=1;" parent="1" source="Q1ceHzpypyp-L0ai0lnX-7" target="Q1ceHzpypyp-L0ai0lnX-9" edge="1">
          <mxGeometry relative="1" as="geometry" />
        </mxCell>
        <mxCell id="Q1ceHzpypyp-L0ai0lnX-7" value="&lt;font style=&quot;font-size: 18px;&quot;&gt;loader=torch.utils.data.DataLoader(&lt;br&gt;collate_fn=collate_fn())&lt;/font&gt;" style="rounded=0;whiteSpace=wrap;html=1;" parent="1" vertex="1">
          <mxGeometry x="180" y="220" width="340" height="50" as="geometry" />
        </mxCell>
        <mxCell id="Q1ceHzpypyp-L0ai0lnX-13" value="" style="edgeStyle=orthogonalEdgeStyle;rounded=0;orthogonalLoop=1;jettySize=auto;html=1;" parent="1" source="Q1ceHzpypyp-L0ai0lnX-9" target="Q1ceHzpypyp-L0ai0lnX-12" edge="1">
          <mxGeometry relative="1" as="geometry" />
        </mxCell>
        <mxCell id="Q1ceHzpypyp-L0ai0lnX-25" style="edgeStyle=orthogonalEdgeStyle;rounded=0;orthogonalLoop=1;jettySize=auto;html=1;exitX=1;exitY=0.5;exitDx=0;exitDy=0;entryX=0.5;entryY=0;entryDx=0;entryDy=0;" parent="1" source="Q1ceHzpypyp-L0ai0lnX-9" target="Q1ceHzpypyp-L0ai0lnX-29" edge="1">
          <mxGeometry relative="1" as="geometry">
            <mxPoint x="580" y="870" as="targetPoint" />
            <Array as="points">
              <mxPoint x="560" y="340" />
              <mxPoint x="560" y="860" />
              <mxPoint x="350" y="860" />
            </Array>
          </mxGeometry>
        </mxCell>
        <mxCell id="Q1ceHzpypyp-L0ai0lnX-9" value="&lt;font style=&quot;font-size: 18px;&quot;&gt;for i in batch&amp;nbsp;&lt;/font&gt;" style="rhombus;whiteSpace=wrap;html=1;" parent="1" vertex="1">
          <mxGeometry x="220" y="310" width="260" height="60" as="geometry" />
        </mxCell>
        <mxCell id="Q1ceHzpypyp-L0ai0lnX-14" style="edgeStyle=orthogonalEdgeStyle;rounded=0;orthogonalLoop=1;jettySize=auto;html=1;exitX=0.5;exitY=1;exitDx=0;exitDy=0;" parent="1" source="Q1ceHzpypyp-L0ai0lnX-12" edge="1">
          <mxGeometry relative="1" as="geometry">
            <mxPoint x="349.82352941176475" y="500" as="targetPoint" />
          </mxGeometry>
        </mxCell>
        <mxCell id="Q1ceHzpypyp-L0ai0lnX-17" style="edgeStyle=orthogonalEdgeStyle;rounded=0;orthogonalLoop=1;jettySize=auto;html=1;exitX=1;exitY=0.5;exitDx=0;exitDy=0;entryX=0.5;entryY=0;entryDx=0;entryDy=0;" parent="1" source="Q1ceHzpypyp-L0ai0lnX-12" target="Q1ceHzpypyp-L0ai0lnX-4" edge="1">
          <mxGeometry relative="1" as="geometry">
            <mxPoint x="465" y="700" as="targetPoint" />
            <Array as="points">
              <mxPoint x="520" y="430" />
              <mxPoint x="520" y="630" />
              <mxPoint x="350" y="630" />
            </Array>
          </mxGeometry>
        </mxCell>
        <mxCell id="Q1ceHzpypyp-L0ai0lnX-12" value="&lt;font style=&quot;font-size: 18px;&quot;&gt;for j in batch_size&amp;nbsp;&lt;/font&gt;" style="rhombus;whiteSpace=wrap;html=1;" parent="1" vertex="1">
          <mxGeometry x="220" y="400" width="260" height="60" as="geometry" />
        </mxCell>
        <mxCell id="Q1ceHzpypyp-L0ai0lnX-16" value="&lt;font style=&quot;font-size: 18px;&quot;&gt;Y&lt;/font&gt;" style="text;html=1;strokeColor=none;fillColor=none;align=center;verticalAlign=middle;whiteSpace=wrap;rounded=0;" parent="1" vertex="1">
          <mxGeometry x="350" y="470" width="60" height="30" as="geometry" />
        </mxCell>
        <mxCell id="Q1ceHzpypyp-L0ai0lnX-18" value="&lt;font style=&quot;font-size: 18px;&quot;&gt;N&lt;/font&gt;" style="text;html=1;strokeColor=none;fillColor=none;align=center;verticalAlign=middle;whiteSpace=wrap;rounded=0;" parent="1" vertex="1">
          <mxGeometry x="465" y="400" width="60" height="30" as="geometry" />
        </mxCell>
        <mxCell id="Q1ceHzpypyp-L0ai0lnX-19" value="&lt;font style=&quot;font-size: 18px;&quot;&gt;Y&lt;/font&gt;" style="text;html=1;strokeColor=none;fillColor=none;align=center;verticalAlign=middle;whiteSpace=wrap;rounded=0;" parent="1" vertex="1">
          <mxGeometry x="350" y="370" width="60" height="30" as="geometry" />
        </mxCell>
        <mxCell id="Q1ceHzpypyp-L0ai0lnX-23" value="" style="edgeStyle=orthogonalEdgeStyle;rounded=0;orthogonalLoop=1;jettySize=auto;html=1;" parent="1" source="Q1ceHzpypyp-L0ai0lnX-20" edge="1">
          <mxGeometry relative="1" as="geometry">
            <mxPoint x="350" y="220" as="targetPoint" />
          </mxGeometry>
        </mxCell>
        <mxCell id="Q1ceHzpypyp-L0ai0lnX-20" value="&lt;font style=&quot;font-size: 18px;&quot;&gt;dataset=LmdbDataset()&lt;/font&gt;" style="rounded=0;whiteSpace=wrap;html=1;" parent="1" vertex="1">
          <mxGeometry x="215" y="160" width="270" height="40" as="geometry" />
        </mxCell>
        <mxCell id="Q1ceHzpypyp-L0ai0lnX-27" style="edgeStyle=orthogonalEdgeStyle;rounded=0;orthogonalLoop=1;jettySize=auto;html=1;" parent="1" source="Q1ceHzpypyp-L0ai0lnX-24" edge="1">
          <mxGeometry relative="1" as="geometry">
            <mxPoint x="350" y="290" as="targetPoint" />
            <Array as="points">
              <mxPoint x="130" y="815" />
              <mxPoint x="130" y="290" />
            </Array>
          </mxGeometry>
        </mxCell>
        <mxCell id="Q1ceHzpypyp-L0ai0lnX-24" value="&lt;font style=&quot;font-size: 18px;&quot;&gt;data process&lt;/font&gt;" style="rounded=0;whiteSpace=wrap;html=1;" parent="1" vertex="1">
          <mxGeometry x="235" y="790" width="235" height="50" as="geometry" />
        </mxCell>
        <mxCell id="Q1ceHzpypyp-L0ai0lnX-28" value="&lt;font style=&quot;font-size: 18px;&quot;&gt;N&lt;/font&gt;" style="text;html=1;strokeColor=none;fillColor=none;align=center;verticalAlign=middle;whiteSpace=wrap;rounded=0;" parent="1" vertex="1">
          <mxGeometry x="470" y="310" width="60" height="30" as="geometry" />
        </mxCell>
        <mxCell id="Q1ceHzpypyp-L0ai0lnX-29" value="&lt;font style=&quot;font-size: 18px;&quot;&gt;end&lt;/font&gt;" style="rounded=1;whiteSpace=wrap;html=1;" parent="1" vertex="1">
          <mxGeometry x="250" y="880" width="200" height="40" as="geometry" />
        </mxCell>
      </root>
    </mxGraphModel>
  </diagram>
</mxfile>
